<svg width="65" height="25" viewBox="0 0 65 25" fill="none" xmlns="http://www.w3.org/2000/svg">
<g clip-path="url(#clip0)">
<path d="M64.9208 15.47C64.8314 15.238 64.7122 15.117 64.5633 15.0968C64.4144 15.0767 64.2952 15.117 64.1959 15.2179C62.5476 17.023 61.0184 17.8197 59.6183 17.5979C58.6551 17.4466 58.1487 16.7709 58.109 15.591C58.109 15.4801 58.1884 15.3792 58.2976 15.359C59.9162 15.0464 61.2071 14.4615 62.1603 13.6144C63.1533 12.737 63.8086 11.4865 64.1463 9.86288C64.3746 8.71322 64.325 7.75517 63.9874 7.0089C63.6498 6.25255 63.1235 5.81891 62.4086 5.70797C61.1971 5.51637 59.9758 6.29289 58.7544 8.02746C57.5231 9.76203 56.689 11.7285 56.2422 13.9169C56.0833 14.6834 56.0039 15.3893 55.984 16.0246C55.984 16.065 55.9741 16.1053 55.9542 16.1356C55.2691 17.2348 54.0577 18.0315 54.0577 16.6398C54.0577 14.996 57.0167 4.49781 58.0693 2.53129C58.4664 1.78502 58.2083 0.857229 57.2352 1.50265C55.6365 2.56155 54.1967 6.20213 53.7399 7.97704C53.7002 8.14848 53.4917 8.18882 53.3725 8.0678C52.8562 7.52322 51.605 6.64585 49.917 8.55186C48.4076 10.1049 47.6232 13.1707 46.6203 15.6717C46.6203 15.6818 46.6104 15.6918 46.6104 15.7019C45.8557 17.0734 45.0613 17.7592 44.0187 18.3542C43.8995 18.4248 43.7506 18.3744 43.7009 18.2534C43.3733 17.4062 44.0286 15.9742 45.0415 13.1707C46.1536 10.115 47.4842 8.16865 47.0075 7.54339C46.6004 7.0089 45.0117 7.3417 44.5946 7.44255C44.5251 7.46272 44.4755 7.50305 44.4457 7.56356C44.2074 8.09805 43.0357 10.7604 42.1122 13.7757C42.1023 13.806 42.0824 13.8363 42.0625 13.8665C41.4965 14.522 40.9703 14.5825 40.6823 14.5523C40.2355 14.4918 40.0468 14.2396 40.1262 13.7959C40.156 13.6144 40.3546 13.1102 40.732 12.2832C41.0994 11.4563 41.3476 10.7201 41.4568 10.0545C41.6356 9.03593 41.2682 8.47119 40.3447 8.36026C39.6993 8.27958 38.6566 9.26788 37.2367 11.3252L37.197 11.3857C36.1246 12.8278 36.3629 11.4462 36.5317 11.0226L37.0877 9.62084C37.0877 9.61076 37.0977 9.60067 37.0977 9.59059C37.1771 9.21745 37.6537 8.36026 36.631 8.17873C36.3629 8.12831 35.777 8.12831 34.9529 8.35017C34.8833 8.37034 34.8238 8.42076 34.794 8.49136L34.367 9.61076C33.4137 12.1017 32.5499 14.3102 31.9342 16.5894C31.8846 16.6902 31.7356 17.1642 31.5668 17.7794C30.9512 18.3744 30.3355 18.7979 30.2164 18.9089C29.8788 19.2215 29.6603 19.282 29.5412 18.8685C29.3624 15.8229 32.0037 8.65271 32.5499 7.18034C32.5796 7.09967 32.6492 7.04924 32.7286 7.03916C35.1217 6.67611 38.2297 6.56518 42.4002 5.90967C42.8271 5.83908 43.1747 5.5567 43.3633 5.1634C43.6811 4.50789 44.0683 3.83222 44.2471 3.15654C44.3166 2.89434 44.0088 2.83383 43.8499 2.86409C39.6198 3.57002 35.7969 4.03391 33.8209 4.39696C33.662 4.42722 33.5329 4.28603 33.5528 4.12468C33.6024 3.79188 33.7216 3.46917 33.9202 2.95485C34.3769 1.54299 33.2152 -1.31098 32.3314 0.756382C31.5271 2.64222 30.9015 4.31628 30.7427 4.9012C30.7228 4.99196 30.6533 5.05247 30.5639 5.06255C27.4559 5.50628 23.5138 6.1517 19.9192 6.96856C19.1844 7.14 19.3433 8.23924 20.0881 8.18881C23.623 7.95687 28.1609 7.58373 28.1609 7.58373C28.1609 7.58373 28.9156 7.52322 29.561 7.45263C29.7298 7.43246 29.8589 7.59382 29.7993 7.75517L29.0546 10.1251C29.0546 10.1251 28.3297 12.7269 27.1679 15.8633C26.9694 16.3877 26.8303 16.902 26.7211 17.3861C26.6715 17.5979 26.3934 17.6281 26.2941 17.4264C26.1452 17.144 25.9466 16.8617 25.6686 16.6095C24.4075 15.4498 21.0016 16.3776 22.3222 13.6043C22.4712 13.2816 23.6032 11.0529 24.4075 12.0008C24.6557 12.2832 24.1493 13.6245 24.2387 14.3102C24.3678 15.2985 26.1055 14.8649 26.592 14.7237C26.6715 14.7035 26.731 14.6329 26.7509 14.5523C27.3467 11.9101 27.5751 9.22754 25.4501 8.67288C25.4302 8.67288 25.4104 8.6628 25.3905 8.6628C21.0314 8.30983 18.6979 14.7035 19.8299 17.1541C20.7136 19.0601 24.4075 17.7189 24.0202 19.2417C23.7422 20.3006 21.5378 22.5595 20.237 18.2735C19.9391 17.3054 17.8737 18.0113 18.539 20.7846C18.5489 20.8451 18.5489 20.9056 18.5192 20.9561C18.3206 21.2989 18.0525 21.5309 17.7248 21.4704C17.2879 21.3998 16.5531 21.2485 16.5233 20.23C16.4637 17.8601 18.4695 11.4058 18.4695 11.4058C18.4695 11.4058 19.1547 9.61076 18.0127 9.28805C17.5957 9.14686 16.9701 9.49983 16.4637 10.1654C16.3644 10.2965 16.1658 10.2663 16.0864 10.1251C15.3317 8.71322 12.9684 10.0141 12.2138 10.9621C9.71149 14.0077 8.85753 17.8802 8.83767 17.9811C8.82774 18.0113 8.77809 18.3845 8.75823 18.4349C8.69865 18.7979 8.62915 19.1509 8.56957 19.5139C8.4802 19.524 8.40076 19.5644 8.34118 19.635C6.66306 21.4704 5.11402 22.2772 3.69407 22.0452C2.71103 21.8939 2.20461 21.2082 2.16489 20.0081C2.16489 19.8972 2.24433 19.7963 2.35356 19.7761C3.99196 19.4534 5.30269 18.8685 6.2758 18.0113C7.2787 17.1239 7.95392 15.8532 8.29153 14.1993C8.52985 13.0295 8.4802 12.0613 8.13266 11.2949C7.79505 10.5285 7.25884 10.0847 6.52404 9.97381C6.14671 9.9133 5.76938 9.94355 5.39205 10.0747C4.22035 10.2965 3.20751 11.779 3.08836 11.9403L2.81032 12.3235C1.55918 14.0884 0.715151 16.0851 0.268314 18.2937C-0.128875 20.2703 -0.069297 21.8334 0.447049 22.9831C0.963395 24.1327 1.74784 24.7883 2.79046 24.9597C3.83309 25.121 4.92536 24.8387 6.05735 24.1126C6.85172 23.6083 7.51702 23.0436 8.07308 22.4183C8.19224 22.2772 8.41069 22.3377 8.47027 22.5091C8.93697 24.0117 10.3271 24.0521 10.3271 24.0521C11.2506 24.1933 12.3627 23.2251 13.6039 21.9645C13.733 21.8334 13.9614 21.8839 14.0111 22.0654C14.5771 24.1832 17.1389 24.5563 19.0951 22.2469C19.1249 22.3175 19.1646 22.3881 19.1944 22.4587C20.5647 25.1614 24.6359 23.0537 26.0757 20.3913C26.1849 20.1896 26.4828 20.2602 26.5027 20.4821C26.5722 21.3191 26.7509 21.9444 26.9296 22.2469C26.9495 22.2772 26.9694 22.3074 26.9892 22.3276C27.9425 23.3764 29.5709 22.499 30.9611 21.2485C31.0505 21.1678 31.1895 21.2183 31.2093 21.3393C31.3682 22.4385 31.8647 22.3578 32.2222 22.4587C32.8279 22.62 34.0294 22.0855 34.3372 20.8552C35.3302 16.9121 36.1643 16.1053 37.5544 13.8968C37.9914 13.2211 37.9417 14.5724 37.9318 14.6329C37.624 16.3675 38.18 17.3256 39.6099 17.497C39.9674 17.5373 40.5632 17.2852 41.0497 16.8919C41.2185 16.7608 41.4568 16.902 41.4171 17.1138C41.1987 18.213 40.9504 19.5644 41.0596 20.1795C41.6058 23.3461 44.5847 20.3308 45.8954 18.8383C46.0245 18.687 46.2628 18.7778 46.2827 18.9694C46.3224 19.3728 46.4416 19.7862 46.5408 20.0081C47.5438 22.2368 50.195 20.6132 51.3468 19.2013C51.466 19.05 51.6944 19.1106 51.7341 19.2921C52.3497 22.025 54.5839 19.5341 55.9542 18.1626C56.0635 18.0517 56.2621 18.092 56.3216 18.2433C56.4011 18.445 56.5004 18.6668 56.55 18.7878C57.0664 19.9173 57.7019 20.3106 58.7346 20.472C59.7573 20.6334 60.8297 20.3611 61.9617 19.635C63.0838 18.9189 63.9675 18.0718 64.613 17.1138C64.7917 16.8415 64.9208 16.549 64.9804 16.2566C65.0201 15.954 65.0101 15.6918 64.9208 15.47ZM58.4664 12.9891C58.7445 11.8899 59.2112 10.8814 59.8765 9.97381C60.6311 8.95525 61.2865 8.48127 61.8525 8.57203C62.4185 8.6628 62.627 9.12669 62.4582 9.94355C62.1901 11.2546 60.9588 12.3538 58.7643 13.2513C58.6055 13.332 58.4267 13.1707 58.4664 12.9891ZM2.61173 17.0029C2.87983 15.954 3.29688 15.2179 3.96217 14.3102C4.72676 13.2715 5.39205 12.7975 5.96798 12.8883C6.5439 12.9791 6.75243 13.443 6.58362 14.2901C6.31552 15.6212 5.13388 16.4179 2.91955 17.2852C2.74082 17.3558 2.56208 17.1945 2.61173 17.0029ZM13.5543 18.8887C13.0677 20.1997 9.93987 22.7209 11.4095 17.3962C12.7401 12.5656 14.2295 12.8883 14.4877 12.9791C14.5075 12.9891 14.5274 12.9992 14.5473 13.0194C15.8183 14.0783 14.1699 17.9609 13.5543 18.8887ZM51.317 16.0751C50.3439 17.9508 48.1296 19.4635 49.0134 15.2078C49.8971 10.9621 51.8731 10.6495 51.8731 10.6495C53.3824 10.6293 52.2902 14.1993 51.317 16.0751Z" fill="black"/>
<path d="M44.7433 5.44573C44.6837 5.55666 44.7929 5.7987 44.922 5.77853C45.2993 5.71802 46.8285 5.51632 47.2058 5.38522C47.6328 5.23395 47.6924 4.98183 47.9406 4.407C48.1492 3.93302 48.2882 3.46913 48.4471 2.98506C48.5662 2.61193 47.9506 2.51108 47.6725 2.53125C45.5476 2.72286 45.9845 3.00523 44.7433 5.44573Z" fill="black"/>
<path d="M62.9842 0.746333L63.2126 1.78506H63.4112L63.6297 0.746333V1.78506H63.8382V0.484131H63.5006L63.3119 1.38167L63.1233 0.484131H62.7856V1.78506H62.9842V0.746333Z" fill="black"/>
<path d="M62.1304 1.78506H62.3489V0.705995H62.6567V0.484131H61.8027V0.705995H62.1304V1.78506Z" fill="black"/>
</g>
<defs>
<clipPath id="clip0">
<rect width="65" height="25" fill="white"/>
</clipPath>
</defs>
</svg>
