<?xml version="1.0" encoding="utf-8"?>
<!-- Generator: Adobe Illustrator 23.0.2, SVG Export Plug-In . SVG Version: 6.00 Build 0)  -->
<svg version="1.1" xmlns="http://www.w3.org/2000/svg" xmlns:xlink="http://www.w3.org/1999/xlink" x="0px" y="0px"
	 viewBox="0 0 177.5 90" style="enable-background:new 0 0 177.5 90;" xml:space="preserve">
<style type="text/css">
	.st0{fill:#FFFFFF;}
	.st1{display:none;fill:#1A1A1A;stroke:#1A1A1A;stroke-miterlimit:10;}
	.st2{display:none;}
	.st3{display:inline;fill:#FFFFFF;}
	.st4{fill:#BBBDBF;stroke:#BBBDBF;stroke-width:0.4284;stroke-miterlimit:10;}
	.st5{fill:#231F20;stroke:#231F20;stroke-width:0.4284;stroke-miterlimit:10;}
	.st6{fill:#231F20;}
</style>
<g id="Layer_1">
	<g>
		<rect y="0" class="st0" width="130.6" height="90"/>
		<path class="st1" d="M69.5,61.1L69.5,61.1L69.5,61.1C69.5,61,69.5,61,69.5,61.1L69.5,61.1l-7.4-12.9l3.6-6.3l0,0l0,0l0,0l0,0l0,0
			l0,0l0,0l0,0l0,0l0,0L54.6,22.3l0,0l0,0l0,0l0,0c0,0,0,0-0.1,0l0,0H47l0,0l0,0l0,0l0,0l0,0l0,0l0,0l0,0l0,0l0,0L39.2,35H32l0,0
			l0,0l0,0l0,0l0,0l0,0l0,0l0,0l0,0l0,0L20.5,54.5l0,0c0,0,0,0,0,0.1c0,0,0,0,0,0.1c0,0,0,0,0,0.1c0,0,0,0,0,0.1l0,0l3.7,6.5l0,0
			l0,0l0,0l0,0l0,0l0,0h0.1l0,0l0,0l0,0H39l3.6,6.3l0,0l0,0l0,0l0,0l0,0l0,0h0.1l0,0l0,0l0,0h22.4h0.1l0,0c0,0,0.1,0,0.1-0.1l0,0
			l3.7-6.5l0,0l0,0C69.5,61.2,69.5,61.2,69.5,61.1C69.5,61.2,69.5,61.2,69.5,61.1C69.5,61.2,69.5,61.1,69.5,61.1L69.5,61.1z
			 M65.3,67.3H43.6l3.4-5.9h21.7L65.3,67.3z M36,54.7l3.4-5.9l7.1,12.4L43.1,67L36,54.7z M68.7,60.9H47l-7.1-12.4h6.8l3.6,6.3l0,0
			l0,0l0,0l0,0l0,0l0,0h0.1l0,0l0,0l0,0H58h0.1l0,0c0,0,0.1,0,0.1-0.1l0,0l3.5-6L68.7,60.9z M21.1,54.7L32,35.9l3.4,5.9L24.5,60.6
			L21.1,54.7z M35.8,41.5l-3.4-5.9h7h7.3l3.4,5.9H35.8z M50.8,41.9L50.8,41.9L50.8,41.9C50.9,41.8,50.9,41.8,50.8,41.9
			C50.8,41.8,50.8,41.8,50.8,41.9L50.8,41.9L50.8,41.9L50.8,41.9L50.8,41.9L50.8,41.9L50.8,41.9l-3.7-6.6l0,0l0,0l0,0l0,0
			c0,0,0,0-0.1,0l0,0h-7l7-12.1L57.9,42l-7.1,12.4l-3.4-5.9L50.8,41.9z M54.2,22.7L65,41.5h-6.8L47.3,22.7H54.2z M57.9,54.4h-6.8
			L58.2,42H65L57.9,54.4z M25,60.9L35.8,42h14.3l-3.4,6h-7.3l0,0l0,0l0,0l0,0l0,0l0,0l0,0l0,0l0,0l0,0l-3.7,6.5l0,0c0,0,0,0,0,0.1
			c0,0,0,0,0,0.1c0,0,0,0,0,0.1c0,0,0,0,0,0.1l0,0l3.5,6C39.2,60.9,25,60.9,25,60.9z"/>
	</g>
	<g class="st2">
		<path class="st3" d="M110.3,23.4v-1h7v1h-3v8.7h-1.1v-8.7C113.2,23.4,110.3,23.4,110.3,23.4z"/>
		<path class="st3" d="M125.8,32.1v-4.4h-4.9v4.4h-1.1v-9.7h1.1v4.3h4.9v-4.3h1.1v9.7H125.8z"/>
		<path class="st3" d="M130.3,32.1v-9.7h5.9v1h-4.8v3.3h4v0.9h-4v3.5h4.8v1H130.3z"/>
		<path class="st3" d="M140.1,28.4v3.7H139v-9.7h3.6c1,0,1.8,0.2,2.3,0.7s0.8,1.2,0.8,2.2c0,1.5-0.6,2.4-1.8,2.8l1.9,3.9h-1.2
			l-1.8-3.7h-2.7V28.4z M142.7,27.5c1.3,0,2-0.7,2-2c0-1.4-0.7-2-2-2h-2.5v4.1h2.5V27.5z"/>
		<path class="st3" d="M147.8,32.1l2.7-9.7h2.4l2.7,9.7h-1.1l-0.7-2.5h-4.1l-0.7,2.5H147.8z M151.3,23.4l-1.5,5.3h3.7l-1.5-5.3
			C152,23.4,151.3,23.4,151.3,23.4z"/>
		<path class="st3" d="M156.4,23.4v-1h7v1h-3v8.7h-1.1v-8.7C159.3,23.4,156.4,23.4,156.4,23.4z"/>
		<path class="st3" d="M165.8,32.1v-9.7h1.1v9.7H165.8z"/>
		<path class="st3" d="M177.5,27.4c0,1.7-0.3,3-0.8,3.8c-0.6,0.8-1.6,1.2-3,1.2s-2.5-0.4-3-1.2s-0.8-2-0.8-3.7s0.3-3,0.8-3.8
			c0.6-0.8,1.6-1.2,3-1.2s2.4,0.4,3,1.2C177.3,24.4,177.5,25.6,177.5,27.4z M171,27.3c0,1.4,0.2,2.4,0.6,3.1
			c0.4,0.6,1.1,0.9,2.2,0.9s1.8-0.3,2.2-0.9s0.6-1.6,0.6-3.1c0-1.4-0.2-2.5-0.6-3.1c-0.4-0.7-1.1-1-2.1-1s-1.8,0.3-2.1,1
			C171.2,24.9,171,25.9,171,27.3z"/>
		<path class="st3" d="M111.4,48.9v-9.7h1.1v9.7H111.4z"/>
		<path class="st3" d="M115.8,48.9v-9.7h2l3.7,8.7h0.3v-8.7h1.1v9.7h-2l-3.8-8.7h-0.3v8.7H115.8z"/>
		<path class="st3" d="M125.4,40.2v-1h7v1h-3v8.7h-1.1v-8.7H125.4z"/>
		<path class="st3" d="M134.8,48.9v-9.7h5.9v1h-4.8v3.3h4v0.9h-4V48h4.8v1L134.8,48.9L134.8,48.9z"/>
		<path class="st3" d="M144.6,45.2v3.7h-1.1v-9.7h3.6c1,0,1.8,0.2,2.3,0.7s0.8,1.2,0.8,2.2c0,1.5-0.6,2.4-1.8,2.8l1.9,3.9h-1.2
			l-1.8-3.7L144.6,45.2L144.6,45.2z M147.2,44.3c1.3,0,2-0.7,2-2c0-1.4-0.7-2-2-2h-2.5v4.1L147.2,44.3L147.2,44.3z"/>
		<path class="st3" d="M153.2,48.9v-9.7h1.1v9.7H153.2z"/>
		<path class="st3" d="M165,44.2c0,1.7-0.3,3-0.8,3.8c-0.6,0.8-1.6,1.2-3,1.2s-2.5-0.4-3-1.2s-0.8-2-0.8-3.7s0.3-3,0.8-3.8
			c0.6-0.8,1.6-1.2,3-1.2s2.4,0.4,3,1.2C164.7,41.2,165,42.4,165,44.2z M158.4,44.1c0,1.4,0.2,2.4,0.6,3.1c0.4,0.6,1.1,0.9,2.2,0.9
			s1.8-0.3,2.2-0.9c0.4-0.6,0.6-1.6,0.6-3.1c0-1.4-0.2-2.5-0.6-3.1c-0.4-0.7-1.1-1-2.1-1s-1.8,0.3-2.1,1
			C158.6,41.7,158.4,42.7,158.4,44.1z"/>
		<path class="st3" d="M169.1,45.2v3.7H168v-9.7h3.6c1,0,1.8,0.2,2.3,0.7s0.8,1.2,0.8,2.2c0,1.5-0.6,2.4-1.8,2.8l1.9,3.9h-1.2
			l-1.8-3.7L169.1,45.2L169.1,45.2z M171.6,44.3c1.3,0,2-0.7,2-2c0-1.4-0.7-2-2-2h-2.5v4.1L171.6,44.3L171.6,44.3z"/>
		<path class="st3" d="M114,56.8c-1.4,0-2.1,0.5-2.1,1.6c0,0.6,0.2,1,0.5,1.2s1,0.4,2,0.7c1,0.2,1.7,0.5,2.1,0.9
			c0.4,0.3,0.6,0.9,0.6,1.7c0,2-1,3-3.1,3c-0.7,0-1.5-0.1-2.6-0.2l-0.5-0.1l0.1-0.9c1.3,0.2,2.2,0.3,2.9,0.3c1.4,0,2.1-0.6,2.1-1.9
			c0-0.5-0.2-0.9-0.5-1.1c-0.3-0.2-0.9-0.4-1.7-0.6c-1.1-0.2-1.9-0.5-2.3-0.9c-0.5-0.4-0.7-1-0.7-1.9c0-1.7,1-2.6,3.1-2.6
			c0.7,0,1.5,0.1,2.5,0.2l0.5,0.1l-0.1,0.9C115.5,56.9,114.6,56.8,114,56.8z"/>
		<path class="st3" d="M119,57v-1h7v1h-3v8.7h-1V57H119z"/>
		<path class="st3" d="M129.4,62.8c0,1.4,0.8,2.1,2.3,2.1c0.8,0,1.4-0.2,1.8-0.5c0.4-0.3,0.6-0.9,0.6-1.6V56h1.1v6.7
			c0,1.1-0.3,1.9-0.9,2.4s-1.4,0.7-2.5,0.7s-2-0.2-2.5-0.7s-0.8-1.3-0.8-2.4V56h1.1v6.8H129.4z"/>
		<path class="st3" d="M141.9,65.7h-3.5V56h3.5c1.6,0,2.6,0.6,3.1,1.9c0.3,0.7,0.4,1.7,0.4,2.8c0,2.4-0.6,4-1.8,4.6
			C143.2,65.6,142.6,65.7,141.9,65.7z M144.4,60.7c0-1.9-0.4-3-1.2-3.5c-0.3-0.2-0.7-0.3-1.2-0.3h-2.4v7.8h2.4
			C143.6,64.8,144.4,63.4,144.4,60.7z"/>
		<path class="st3" d="M148.6,65.7V56h1.1v9.7H148.6z"/>
		<path class="st3" d="M160.3,61c0,1.7-0.3,3-0.8,3.8c-0.6,0.8-1.6,1.2-3,1.2s-2.5-0.4-3-1.2s-0.8-2-0.8-3.7s0.3-3,0.8-3.8
			c0.6-0.8,1.6-1.2,3-1.2s2.4,0.4,3,1.2C160,58,160.3,59.2,160.3,61z M153.8,60.9c0,1.4,0.2,2.4,0.6,3.1c0.4,0.6,1.1,0.9,2.2,0.9
			s1.8-0.3,2.2-0.9s0.6-1.6,0.6-3.1c0-1.4-0.2-2.5-0.6-3.1c-0.4-0.7-1.1-1-2.1-1s-1.8,0.3-2.1,1C153.9,58.5,153.8,59.5,153.8,60.9z"
			/>
	</g>
</g>
<g id="Layer_2">
	<g>
		
			<rect x="14.2" y="40.2" transform="matrix(0.7071 -0.7071 0.7071 0.7071 -18.6215 37.0168)" class="st4" width="42.4" height="1.5"/>
		
			<rect x="16.5" y="42.5" transform="matrix(0.7071 -0.7071 0.7071 0.7071 -19.5681 39.302)" class="st4" width="42.4" height="1.5"/>
		
			<rect x="18.7" y="44.8" transform="matrix(0.7071 -0.7071 0.7071 0.7071 -20.5146 41.5872)" class="st4" width="42.4" height="1.5"/>
		
			<rect x="21" y="47.1" transform="matrix(0.7071 -0.7071 0.7071 0.7071 -21.4612 43.8724)" class="st4" width="42.4" height="1.5"/>
		
			<rect x="23.3" y="49.4" transform="matrix(0.7071 -0.7071 0.7071 0.7071 -22.4078 46.1576)" class="st4" width="42.4" height="1.5"/>
		
			<rect x="25.6" y="51.7" transform="matrix(0.7071 -0.7071 0.7071 0.7071 -23.3543 48.4428)" class="st4" width="42.4" height="1.5"/>
		
			<rect x="27.9" y="53.9" transform="matrix(0.7071 -0.7071 0.7071 0.7071 -24.3009 50.728)" class="st4" width="42.4" height="1.5"/>
		
			<rect x="30.2" y="56.2" transform="matrix(0.7071 -0.7071 0.7071 0.7071 -25.2475 53.0132)" class="st4" width="42.4" height="1.5"/>
		
			<rect x="32.5" y="58.5" transform="matrix(0.7071 -0.7071 0.7071 0.7071 -26.194 55.2984)" class="st4" width="42.4" height="1.5"/>
		
			<rect x="34.7" y="60.8" transform="matrix(0.7071 -0.7071 0.7071 0.7071 -27.1406 57.5836)" class="st4" width="42.4" height="1.5"/>
		
			<rect x="37" y="63.1" transform="matrix(0.7071 -0.7071 0.7071 0.7071 -28.0872 59.8688)" class="st4" width="42.4" height="1.5"/>
		
			<rect x="39.3" y="65.4" transform="matrix(0.7071 -0.7071 0.7071 0.7071 -29.0337 62.154)" class="st4" width="42.4" height="1.5"/>
	</g>
	<g>
		
			<rect x="15.3" y="23.1" transform="matrix(0.7071 -0.7071 0.7071 0.7071 -6.188 32.8132)" class="st5" width="42.4" height="1.5"/>
		
			<rect x="17.6" y="25.4" transform="matrix(0.7071 -0.7071 0.7071 0.7071 -7.1346 35.0984)" class="st5" width="42.4" height="1.5"/>
		
			<rect x="19.9" y="27.7" transform="matrix(0.7071 -0.7071 0.7071 0.7071 -8.0811 37.3836)" class="st5" width="42.4" height="1.5"/>
		<rect x="22.2" y="30" transform="matrix(0.7071 -0.7071 0.7071 0.7071 -9.0277 39.6688)" class="st5" width="42.4" height="1.5"/>
		
			<rect x="24.5" y="32.3" transform="matrix(0.7071 -0.7071 0.7071 0.7071 -9.9743 41.954)" class="st5" width="42.4" height="1.5"/>
		
			<rect x="26.7" y="34.5" transform="matrix(0.7071 -0.7071 0.7071 0.7071 -10.9208 44.2392)" class="st5" width="42.4" height="1.5"/>
		
			<rect x="29" y="36.8" transform="matrix(0.7071 -0.7071 0.7071 0.7071 -11.8674 46.5244)" class="st5" width="42.4" height="1.5"/>
		
			<rect x="31.3" y="39.1" transform="matrix(0.7071 -0.7071 0.7071 0.7071 -12.814 48.8096)" class="st5" width="42.4" height="1.5"/>
		
			<rect x="33.6" y="41.4" transform="matrix(0.7071 -0.7071 0.7071 0.7071 -13.7605 51.0948)" class="st5" width="42.4" height="1.5"/>
		
			<rect x="35.9" y="43.7" transform="matrix(0.7071 -0.7071 0.7071 0.7071 -14.7071 53.38)" class="st5" width="42.4" height="1.5"/>
		
			<rect x="38.2" y="46" transform="matrix(0.7071 -0.7071 0.7071 0.7071 -15.6536 55.6653)" class="st5" width="42.4" height="1.5"/>
		
			<rect x="40.4" y="48.3" transform="matrix(0.7071 -0.7071 0.7071 0.7071 -16.6002 57.9505)" class="st5" width="42.4" height="1.5"/>
	</g>
	<g>
		<path class="st0" d="M39.4,66.4V25.1H51c3.7,0,9.2,0.3,11.9,3.4c2.3,2.6,2.7,5.6,2.7,9c0,4.5-1,9.5-5.5,11.5
			c-3.4,1.7-7.2,1.2-10.9,1.3v16.1H39.4z M49.1,42.9c1.8-0.1,3.9,0.2,5.5-1c1-1.1,1.2-2.7,1.2-4.2c0-1.6-0.2-4.1-1.8-4.8
			c-0.9-0.4-2.3-0.3-3.8-0.3h-1V42.9z"/>
	</g>
	<g>
		<path class="st6" d="M72.6,46.3L72.3,46c-1.1-1.1-1.2-2.4,0-3.6c1-1,2.2-1.2,3.3-0.1c0.7,0.7,0.9,1.4,0.9,2.4l0,1
			c0,0.4,0,1.4,0.2,1.8l2-2l1,1L76.3,50l-0.2-0.2c-1-1-1.2-2.4-1.2-3.7l0-1.2c0-0.6-0.2-0.9-0.6-1.3c-0.3-0.3-0.7-0.5-1.1-0.1
			c-0.4,0.4,0.1,1,0.4,1.3l0.3,0.3L72.6,46.3z"/>
		<path class="st6" d="M78.2,43.7l-1.7-5.3l1.3-1.3l3.6,3.6l0.5-0.5l1,1l-0.5,0.5l1.1,1.1l-1.2,1.2l-1.1-1.1l-1.9,1.9L78.2,43.7z
			 M80.3,41.8L78.4,40l0,0l0.9,2.8L80.3,41.8z"/>
	</g>
	<g>
		<path class="st6" d="M60.6,60.3v4.3c0,0.7,0.1,1.1,0.2,1.3c0.1,0.2,0.3,0.2,0.6,0.2c0.4,0,0.8-0.2,1.2-0.7
			c0.6-0.8,0.9-1.9,0.9-3.3c0-0.5,0-0.7,0.1-0.8c0-0.1,0.1-0.1,0.1-0.1c0.1,0,0.1,0,0.1,0.1c0,0.1,0.1,0.2,0.1,0.4
			c0,1.4-0.2,2.5-0.7,3.5c-0.5,0.9-1.1,1.4-1.9,1.4c-0.8,0-1.4-0.4-1.9-1.1s-0.7-2.3-0.7-4.7v-1.7c0-1.8,0.3-3.2,1-4.2
			c0.5-0.7,1.1-1,1.8-1c0.8,0,1.4,0.4,1.9,1.3c0.4,0.9,0.7,1.9,0.7,3.2v1.9H60.6z M61.8,59.9V55c0-0.3-0.1-0.6-0.2-0.7
			c-0.1-0.1-0.2-0.2-0.4-0.2c-0.2,0-0.3,0.1-0.4,0.2c-0.1,0.1-0.2,0.4-0.2,0.7v4.9H61.8z"/>
		<path class="st6" d="M69.4,54.3h-0.5c0,0-0.1,0-0.1,0c0,0,0-0.1,0-0.1s0-0.1,0-0.1c0,0,0.1,0,0.1,0h2.5v1.5
			c0.3-0.7,0.5-1.1,0.7-1.3c0.2-0.2,0.5-0.3,0.7-0.3c0.3,0,0.7,0.2,0.9,0.5c0.4,0.4,0.5,1,0.5,1.7c0,0.6-0.1,1-0.4,1.3
			c-0.2,0.3-0.5,0.4-0.8,0.4c-0.2,0-0.4-0.1-0.6-0.3c-0.2-0.3-0.3-0.7-0.3-1.2c0-0.5,0.1-1,0.4-1.4c0.1-0.2,0.2-0.4,0.2-0.5
			c0-0.1,0-0.1-0.1-0.2c-0.1,0-0.1-0.1-0.2-0.1c-0.1,0-0.3,0.1-0.4,0.2c-0.2,0.2-0.4,0.6-0.6,1.3c-0.2,0.6-0.3,1.3-0.3,2.1v8.3H72
			c0.1,0,0.1,0,0.1,0c0,0,0,0.1,0,0.1l0,0.1c0,0-0.1,0-0.1,0h-3.1c0,0-0.1,0-0.1,0c0,0,0-0.1,0-0.1c0,0,0-0.1,0-0.1c0,0,0.1,0,0.1,0
			h0.5V54.3z"/>
		<path class="st6" d="M81,63.9c-0.5-0.4-0.8-1-1-1.6c-0.3-0.8-0.4-1.9-0.4-3.3c0-1.9,0.3-3.3,0.9-4.2c0.4-0.6,1-0.9,1.8-0.9
			c0.5,0,0.9,0.2,1.3,0.5c0.2-0.4,0.4-0.6,0.6-0.8c0.2-0.2,0.4-0.3,0.7-0.3c0.3,0,0.5,0.1,0.6,0.3c0.2,0.2,0.2,0.4,0.2,0.8
			c0,0.3-0.1,0.5-0.2,0.6c-0.1,0.1-0.2,0.2-0.4,0.2c-0.2,0-0.3-0.1-0.4-0.2c-0.1-0.1-0.2-0.3-0.2-0.5v-0.1c0-0.1,0-0.1,0-0.2
			c0-0.1,0-0.2-0.1-0.3s-0.1-0.1-0.2-0.1c-0.1,0-0.2,0.1-0.3,0.2c-0.1,0.1-0.2,0.3-0.3,0.6c0.7,0.9,1.1,2.4,1.1,4.5
			c0,1.8-0.3,3.2-0.9,4c-0.5,0.6-1,1-1.7,1c-0.1,0-0.2,0-0.4,0c-0.1,0-0.3,0-0.7,0c-0.5,0-0.8,0.1-1,0.2c-0.2,0.1-0.3,0.3-0.3,0.4
			c0,0.1,0.1,0.2,0.2,0.3c0.2,0.1,0.4,0.2,0.7,0.2h1.8c0.9,0,1.6,0.2,2,0.6c0.4,0.4,0.6,1,0.6,1.9c0,0.9-0.3,1.6-0.8,2.2
			c-0.5,0.5-1.3,0.8-2.3,0.8c-1,0-1.7-0.2-2.2-0.6c-0.5-0.4-0.8-0.9-0.8-1.4c0-0.3,0.1-0.6,0.2-0.9c0.2-0.3,0.4-0.6,0.7-0.8
			c-0.2-0.2-0.4-0.4-0.6-0.6c-0.1-0.2-0.2-0.5-0.2-0.8c0-0.5,0.1-0.9,0.4-1.2C79.8,64.1,80.3,63.9,81,63.9z M80.1,67.1
			c-0.2,0.2-0.4,0.4-0.5,0.6c-0.1,0.2-0.2,0.4-0.2,0.6c0,0.4,0.2,0.8,0.7,1.1c0.4,0.3,1.1,0.5,1.9,0.5c0.8,0,1.5-0.2,2-0.6
			c0.4-0.3,0.6-0.7,0.6-1.1c0-0.3-0.1-0.6-0.3-0.7c-0.3-0.2-0.9-0.3-1.8-0.3h-0.5C81.3,67.2,80.7,67.2,80.1,67.1z M82.7,55
			c0-0.4,0-0.6-0.1-0.7c-0.1-0.1-0.2-0.2-0.4-0.2c-0.2,0-0.3,0.1-0.4,0.2c-0.1,0.1-0.2,0.4-0.2,0.7v7.7c0,0.5,0.1,0.8,0.2,1
			c0.1,0.1,0.2,0.2,0.4,0.2c0.2,0,0.3-0.1,0.4-0.2c0.1-0.1,0.1-0.3,0.1-0.6V55z"/>
		<path class="st6" d="M90.5,61.1v-2.3c0-1.8,0.3-3.1,0.9-4c0.4-0.6,1-0.9,1.7-0.9c0.9,0,1.5,0.5,2,1.4s0.7,2.1,0.7,3.6v2.5
			c0,2-0.3,3.4-0.9,4.2c-0.4,0.6-1,0.9-1.7,0.9c-0.4,0-0.8-0.1-1.1-0.3c-0.3-0.2-0.7-0.6-0.9-1.2c-0.3-0.6-0.5-1.3-0.5-2.2
			C90.5,61.9,90.5,61.3,90.5,61.1z M93.7,55.4c0-0.4-0.1-0.7-0.2-0.9c-0.1-0.2-0.3-0.3-0.4-0.3c-0.1,0-0.3,0.1-0.4,0.2
			c-0.1,0.1-0.2,0.4-0.2,0.7v9.7c0,0.6,0.1,1,0.2,1.2c0.1,0.2,0.3,0.2,0.4,0.2c0.2,0,0.3-0.1,0.4-0.2c0.1-0.1,0.1-0.4,0.1-0.9V55.4z
			"/>
		<path class="st6" d="M103.4,49v17.1h0.5c0,0,0.1,0,0.1,0c0,0,0,0.1,0,0.1c0,0,0,0.1,0,0.1c0,0-0.1,0-0.1,0h-3c0,0-0.1,0-0.1,0
			c0,0,0-0.1,0-0.1c0,0,0-0.1,0-0.1c0,0,0.1,0,0.1,0h0.5V49.3h-0.5c0,0-0.1,0-0.1,0c0,0,0-0.1,0-0.1c0,0,0-0.1,0-0.1
			c0,0,0.1,0,0.1,0H103.4z"/>
		<path class="st6" d="M109.7,55.2c0.1,0,0.2-0.1,0.3-0.1c0.1,0,0.2,0,0.3,0c0.3,0,0.6,0.1,0.8,0.3c0.2,0.2,0.3,0.5,0.3,0.9
			c0,0.4-0.1,0.7-0.3,0.9c-0.2,0.2-0.5,0.3-0.9,0.3c-0.4,0-0.6-0.1-0.9-0.3c-0.2-0.2-0.3-0.6-0.3-1c0-0.7,0.3-1.2,0.7-1.7
			c0.5-0.4,1.2-0.7,2.1-0.7c0.8,0,1.4,0.2,1.8,0.5c0.4,0.3,0.5,0.7,0.5,1.2v10c0,0.1,0,0.2,0.1,0.3c0.1,0.1,0.1,0.1,0.2,0.1
			c0.2,0,0.4-0.2,0.6-0.6c0.1-0.1,0.1-0.2,0.2-0.2l0.1,0.1c0,0.3-0.2,0.6-0.5,0.9c-0.3,0.3-0.8,0.4-1.2,0.4c-0.4,0-0.7-0.1-1-0.3
			c-0.2-0.2-0.4-0.5-0.5-1c-0.4,0.5-0.7,0.9-0.9,1c-0.3,0.2-0.6,0.3-0.9,0.3c-0.4,0-0.8-0.1-1-0.3c-0.2-0.2-0.4-0.5-0.4-0.9V61
			c0-0.5,0.1-0.8,0.3-1c0.2-0.2,0.8-0.5,1.8-0.8c0.4-0.2,0.8-0.3,1.1-0.5v-3.3c0-0.3-0.1-0.6-0.3-0.8c-0.2-0.2-0.4-0.3-0.7-0.3
			C110.5,54.2,110,54.6,109.7,55.2z M112.2,59c-0.5,0.2-0.8,0.4-1,0.6c-0.1,0.2-0.2,0.5-0.2,0.9v4.9c0,0.2,0,0.3,0.1,0.4
			c0.1,0.1,0.1,0.1,0.2,0.1c0.1,0,0.3-0.1,0.4-0.4c0.3-0.5,0.5-1.1,0.5-1.8V59z"/>
	</g>
</g>
</svg>
