<?xml version="1.0" encoding="UTF-8" standalone="no"?>
<svg
   width="305.241"
   height="305"
   viewBox="0 0 305.241 305"
   fill="none"
   version="1.1"
   id="svg5"
   sodipodi:docname="admin.svg"
   inkscape:export-filename="admin.png"
   inkscape:export-xdpi="96"
   inkscape:export-ydpi="96"
   xmlns:inkscape="http://www.inkscape.org/namespaces/inkscape"
   xmlns:sodipodi="http://sodipodi.sourceforge.net/DTD/sodipodi-0.dtd"
   xmlns="http://www.w3.org/2000/svg"
   xmlns:svg="http://www.w3.org/2000/svg">
  <defs
     id="defs5" />
  <sodipodi:namedview
     id="namedview5"
     pagecolor="#505050"
     bordercolor="#ffffff"
     borderopacity="1"
     inkscape:showpageshadow="0"
     inkscape:pageopacity="0"
     inkscape:pagecheckerboard="1"
     inkscape:deskcolor="#505050" />
  <path
     d="m 301.241,152.5 c 0,82.011 -66.537,148.5 -148.62,148.5 C 70.537,301 4,234.511 4,152.5 4,70.489 70.537,4 152.621,4 c 82.083,0 148.62,66.489 148.62,148.5 z"
     stroke="#1dd9ff"
     stroke-width="8"
     id="path2" />
  <path
     d="M 166.58,205.539 184.775,223.024 166.58,235.263 160.367,251 H 124.864 L 124.42,234.826 99.124,223.024 80.929,231.766 52.97,207.725 64.065,192.862 52.97,166.198 33,164.449 V 119.862 L 50.308,116.365 61.846,94.072 50.308,79.21 80.929,49.485 94.243,58.228 124.42,44.677 128.414,32 h 38.166 l 3.106,15.737 24.852,10.491 20.415,-8.743 25.296,33.222 -11.539,17.485 9.32,19.67 19.97,7.431 m -161.538,-5.245 28.402,27.976 3.55,2.623 3.55,2.185 3.551,0.875 3.55,0.874 4.438,0.437 h 3.55 l 3.994,-0.437 3.994,-1.749 3.107,-2.185 1.775,-2.623 0.888,-3.06 0.443,-3.934 0.444,-3.934 v -3.06 -2.186 -2.185 l -0.887,-2.623 -3.653,-4.371 -30.963,-30.599 4.438,-3.06 6.213,-1.311 h 8.876 l 9.319,1.311 7.545,1.311 7.1,3.06 7.101,4.809 5.769,4.808 4.438,6.557 3.994,5.683 3.55,7.431 2.562,6.119 0.101,7.869 v 7.868 l -0.101,0.514 -1.674,9.54 -5.325,7.868 54.142,55.078 3.994,5.245 2.219,5.246 v 2.623 l -0.888,2.622 -1.331,2.186 -1.775,2.623 -2.663,2.185 -3.55,1.312 -3.107,0.874 -3.55,0.437 h -2.219 l -2.663,-0.874 -2.219,-1.311 -1.775,-1.312 -55.03,-53.329 -9.319,2.186 -10.207,0.874 -7.545,0.437 -7.988,-0.437 -7.988,-1.749 -7.544,-3.497 -7.101,-5.245 -5.769,-5.246 -5.326,-6.12 -4.437,-6.994 -2.663,-5.682 -0.888,-6.557 -0.444,-6.994 0.444,-7.431 0.888,-6.994 z"
     stroke="#1dd9ff"
     stroke-width="7"
     id="path3" />
  <path
     d="m 255.781,124.671 v 35.407 l -13.314,3.934 -10.65,18.359 -19.971,-18.359 0.888,-5.683 0.887,-6.119 0.444,-5.246 -0.444,-5.683 -0.443,-5.682 -1.332,-8.743 -2.663,-9.179 -4.437,-10.054 -3.995,-6.557 -4.437,-5.683 -6.213,-5.245 -5.326,-3.497 -3.994,-3.06 -3.994,-2.623 -5.325,-3.06 -6.657,-2.623 -6.213,-1.311 -5.77,-0.437 h -6.213 -6.656 l -9.32,0.874 -7.1,1.749 -6.657,1.748 -8.432,4.371 c -0.888,1.458 -3.994,3.06 -4.882,3.497 -0.953,0.47 -3.994,3.206 -5.769,4.372 l -6.213,7.431 c -2.219,3.205 -6.746,9.879 -7.101,10.928 -0.443,1.311 -2.662,4.371 -3.106,5.683 -0.355,1.049 -2.959,6.119 -3.994,8.742 l -1.775,7.431 c 0,2.04 -0.888,6.47 -0.888,7.869 0,1.748 1.331,9.616 1.331,10.928 0,1.049 1.184,5.974 1.775,8.305 l 3.995,10.491 2.219,5.246 3.994,6.994 9.319,11.365 7.101,4.808 4.881,3.06 4.438,2.623 8.432,3.06 c 2.367,0.437 7.367,1.399 8.432,1.748 1.065,0.35 10.651,0.875 15.533,0.656 h 4.216 l 2.884,-0.219 4.882,-0.437 7.988,-1.748 1.775,1.748"
     stroke="#1dd9ff"
     stroke-width="7"
     id="path4" />
</svg>
