<?xml version="1.0" encoding="UTF-8" standalone="no"?>
<svg
   width="305.241"
   height="305"
   viewBox="0 0 305.241 305"
   fill="none"
   version="1.1"
   id="svg5"
   xmlns="http://www.w3.org/2000/svg"
   xmlns:svg="http://www.w3.org/2000/svg">
  <defs
     id="defs5" />
  <path
     d="m 127.589,228.025 4.734,-28.235 -20.598,-23.891 33.948,-74.93 h 8.392 m -26.476,127.056 -3.277,19.546 h 58.742 l -3.589,-19.546 m -51.876,0 h 51.876 m 0,0 -5.184,-28.235 21.361,-23.891 -33.185,-74.93 h -8.392 m 0,0 v 54.659 M 81.972,77.622 V 89.386 H 57.56 V 65.857 h 24.412 z m 0,0 h 58.742 m 0,0 v 11.764 h 24.794 V 77.622 m -24.794,0 V 65.857 h 24.794 v 11.765 m -24.794,0 -13.35,3.076 -12.588,5.43 -12.969,7.602 -8.01,7.239 -8.392,9.774 -6.866,9.773 -5.34,13.032 -1.526,11.583 m 93.835,-67.509 h 58.361 m -58.361,0 13.732,3.076 13.351,5.43 12.206,7.602 8.773,7.239 8.773,9.774 5.722,9.773 5.34,13.032 3.433,11.583 M 223.869,77.622 V 65.857 h 25.557 v 23.529 h -25.557 z m 12.969,67.509 h -11.825 v 23.167 h 24.413 v -23.167 z m 0,0 c 0,-0.965 0,-1.158 0,0 z m -165.165,0 h 11.443 v 23.167 H 57.56 v -23.167 z"
     stroke="#1dd9ff"
     stroke-width="7"
     id="path2" />
  <path
     d="m 163.074,168.714 c 0,5.111 -4.232,9.357 -9.581,9.357 -5.35,0 -9.582,-4.246 -9.582,-9.357 0,-5.111 4.232,-9.357 9.582,-9.357 5.349,0 9.581,4.246 9.581,9.357 z"
     stroke="#1dd9ff"
     stroke-width="7"
     id="path3" />
  <path
     d="m 301.241,152.5 c 0,82.011 -66.537,148.5 -148.62,148.5 C 70.537,301 4,234.511 4,152.5 4,70.489 70.537,4 152.621,4 c 82.083,0 148.62,66.489 148.62,148.5 z"
     stroke="#1dd9ff"
     stroke-width="8"
     id="path4" />
</svg>
