<?xml version="1.0" encoding="UTF-8" standalone="no"?>
<svg
   width="305.241"
   height="305"
   viewBox="0 0 305.241 305"
   fill="none"
   version="1.1"
   id="svg4"
   xmlns="http://www.w3.org/2000/svg"
   xmlns:svg="http://www.w3.org/2000/svg">
  <defs
     id="defs4" />
  <path
     d="m 49.43,155.374 v -5.114 l 41.165,-20.966 v 8.182 l -31.577,15.213 0.256,-0.511 v 1.278 l -0.256,-0.511 31.577,15.213 v 8.182 z m 62.65,23.523 c -1.577,0 -2.93,-0.565 -4.059,-1.694 -1.129,-1.129 -1.694,-2.482 -1.694,-4.059 0,-1.577 0.565,-2.93 1.694,-4.059 1.129,-1.129 2.482,-1.694 4.059,-1.694 1.577,0 2.93,0.565 4.059,1.694 1.129,1.129 1.694,2.482 1.694,4.059 0,1.044 -0.267,2.003 -0.799,2.876 -0.512,0.874 -1.204,1.577 -2.078,2.11 -0.852,0.511 -1.811,0.767 -2.876,0.767 z m 24.785,0 c -1.577,0 -2.93,-0.565 -4.059,-1.694 -1.129,-1.129 -1.694,-2.482 -1.694,-4.059 0,-1.577 0.565,-2.93 1.694,-4.059 1.129,-1.129 2.482,-1.694 4.059,-1.694 1.577,0 2.93,0.565 4.059,1.694 1.129,1.129 1.694,2.482 1.694,4.059 0,1.044 -0.266,2.003 -0.799,2.876 -0.511,0.874 -1.204,1.577 -2.077,2.11 -0.853,0.511 -1.812,0.767 -2.877,0.767 z m 24.785,0 c -1.576,0 -2.929,-0.565 -4.059,-1.694 -1.129,-1.129 -1.694,-2.482 -1.694,-4.059 0,-1.577 0.565,-2.93 1.694,-4.059 1.13,-1.129 2.483,-1.694 4.059,-1.694 1.577,0 2.93,0.565 4.059,1.694 1.129,1.129 1.694,2.482 1.694,4.059 0,1.044 -0.266,2.003 -0.799,2.876 -0.511,0.874 -1.204,1.577 -2.077,2.11 -0.853,0.511 -1.811,0.767 -2.877,0.767 z m 42.427,-69.034 -21.093,78.366 h -6.904 l 21.094,-78.366 z m 52.279,45.511 -41.164,20.966 v -8.182 l 31.576,-15.213 -0.255,0.511 v -1.278 l 0.255,0.511 -31.576,-15.213 v -8.182 l 41.164,20.966 z"
     fill="#1dd9ff"
     id="path2" />
  <path
     d="m 301.241,152.5 c 0,82.011 -66.537,148.5 -148.62,148.5 C 70.537,301 4,234.511 4,152.5 4,70.489 70.537,4 152.621,4 c 82.083,0 148.62,66.489 148.62,148.5 z"
     stroke="#1dd9ff"
     stroke-width="8"
     id="path3" />
</svg>
